<svg viewBox="0 0 800 600" xmlns="http://www.w3.org/2000/svg">
    <!-- Background -->
    <rect width="800" height="600" fill="#f8f9fa"/>

    <!-- Main Mesh Grid -->
    <path d="M100 100 L700 100 L700 500 L100 500 Z"
          fill="none"
          stroke="#ddd"
          stroke-width="1"
          stroke-dasharray="5,5"/>

    <!-- Energy Nodes (Solar/Battery) -->
    <g fill="#ffd700" stroke="#d4af37" stroke-width="2">
        <circle cx="200" cy="200" r="40"/>
        <circle cx="600" cy="200" r="40"/>
        <circle cx="200" cy="400" r="40"/>
        <circle cx="600" cy="400" r="40"/>
    </g>

    <!-- Computing Nodes -->
    <g fill="#87ceeb" stroke="#4682b4" stroke-width="2">
        <rect x="360" y="160" width="80" height="80" rx="10"/>
        <rect x="360" y="360" width="80" height="80" rx="10"/>
    </g>

    <!-- Communication Links -->
    <g stroke="#666" stroke-width="3" stroke-dasharray="10,5">
        <!-- Energy to Computing Links -->
        <path d="M240 200 L360 200" fill="none"/>
        <path d="M560 200 L440 200" fill="none"/>
        <path d="M240 400 L360 400" fill="none"/>
        <path d="M560 400 L440 400" fill="none"/>

        <!-- Vertical Communication Links -->
        <path d="M400 240 L400 360" fill="none"/>
        <path d="M200 240 L200 360" fill="none"/>
        <path d="M600 240 L600 360" fill="none"/>

        <!-- Cross Links -->
        <path d="M240 240 L360 360" fill="none"/>
        <path d="M560 240 L440 360" fill="none"/>
        <path d="M240 360 L360 240" fill="none"/>
        <path d="M560 360 L440 240" fill="none"/>
    </g>

    <!-- Labels -->
    <g font-family="Arial" font-size="14" fill="#333">
        <!-- Energy Nodes -->
        <text x="170" y="205" text-anchor="middle">E1</text>
        <text x="570" y="205" text-anchor="middle">E2</text>
        <text x="170" y="405" text-anchor="middle">E3</text>
        <text x="570" y="405" text-anchor="middle">E4</text>

        <!-- Computing Nodes -->
        <text x="400" y="205" text-anchor="middle">C1</text>
        <text x="400" y="405" text-anchor="middle">C2</text>
    </g>

    <!-- Legend -->
    <g transform="translate(50,520)">
        <circle cx="20" cy="20" r="10" fill="#ffd700" stroke="#d4af37"/>
        <text x="40" y="25" font-family="Arial" font-size="12">Energy Node</text>

        <rect x="120" y="10" width="20" height="20" fill="#87ceeb" stroke="#4682b4"/>
        <text x="150" y="25" font-family="Arial" font-size="12">Computing Node</text>

        <line x1="250" y1="20" x2="290" y2="20" stroke="#666" stroke-width="3" stroke-dasharray="10,5"/>
        <text x="310" y="25" font-family="Arial" font-size="12">Communication Link</text>
    </g>

    <!-- Title -->
    <text x="400" y="50" font-family="Arial" font-weight="bold" font-size="24" text-anchor="middle" fill="#333">
        Energy + Computing + Communication Mesh Cluster
    </text>
</svg>
